<svg width="106" height="43" viewBox="0 0 106 43" fill="none" xmlns="http://www.w3.org/2000/svg">
<path d="M23.282 6.688C23.282 7.95467 22.674 9.082 21.458 10.07C20.2673 11.058 18.8867 11.78 17.316 12.236C15.7707 12.692 14.276 12.92 12.832 12.92C12.452 12.92 12.1733 12.9073 11.996 12.882V11.59C12.0467 11.59 12.7813 11.476 14.2 11.248C15.6187 10.9947 16.8093 10.564 17.772 9.956C18.76 9.348 19.254 8.664 19.254 7.904C19.254 6.992 18.57 6.536 17.202 6.536C15.3527 6.536 13.6047 7.16933 11.958 8.436C10.3113 9.70267 9.488 11.0327 9.488 12.426C9.488 13.8193 10.3493 14.7187 12.072 15.124C12.452 15.2253 12.7053 15.3267 12.832 15.428C12.9587 15.5293 13.022 15.7067 13.022 15.96C13.022 16.2133 12.8953 16.4287 12.642 16.606C12.414 16.758 11.8693 16.986 11.008 17.29C6.34667 18.886 4.016 21.3687 4.016 24.738C4.016 25.422 4.14267 26.0047 4.396 26.486C5.94133 24.51 7.94267 22.9013 10.4 21.66C12.8573 20.4187 15.226 19.798 17.506 19.798C18.6967 19.798 19.6467 20.064 20.356 20.596C21.0653 21.1027 21.42 21.812 21.42 22.724C21.42 24.1427 20.7613 25.5613 19.444 26.98C18.1267 28.3987 16.4167 29.5513 14.314 30.438C12.2367 31.35 10.1593 31.806 8.082 31.806C6.03 31.806 4.40867 31.426 3.218 30.666C3.19267 30.6913 3.07867 30.8813 2.876 31.236C2.36933 32.2493 1.93867 32.9587 1.584 33.364L0.33 32.832C0.507333 32.1227 1.02667 31.046 1.888 29.602C0.722667 28.2847 0.14 26.8153 0.14 25.194C0.14 23.5473 0.798667 21.9893 2.116 20.52C3.45867 19.0253 5.32067 17.7967 7.702 16.834C6.51133 15.846 5.916 14.82 5.916 13.756C5.916 12.312 6.676 10.8427 8.196 9.348C9.716 7.828 11.5653 6.59933 13.744 5.662C15.948 4.72467 18.0127 4.256 19.938 4.256C20.9513 4.256 21.762 4.484 22.37 4.94C22.978 5.37067 23.282 5.95333 23.282 6.688ZM15.302 22.078C13.8073 22.078 12.0593 22.648 10.058 23.788C8.082 24.928 6.47333 26.2833 5.232 27.854C6.24533 28.994 7.67667 29.564 9.526 29.564C11.4007 29.564 13.2247 28.9687 14.998 27.778C16.7967 26.562 17.696 25.2573 17.696 23.864C17.696 23.3067 17.4807 22.876 17.05 22.572C16.6193 22.2427 16.0367 22.078 15.302 22.078ZM24.8379 28.272C24.5339 27.968 24.3819 27.6007 24.3819 27.17C24.3819 26.7393 24.5339 26.372 24.8379 26.068C25.1419 25.764 25.5093 25.612 25.9399 25.612C26.3706 25.612 26.7379 25.764 27.0419 26.068C27.3459 26.372 27.4979 26.7393 27.4979 27.17C27.4979 27.6007 27.3459 27.968 27.0419 28.272C26.7379 28.576 26.3706 28.728 25.9399 28.728C25.5093 28.728 25.1419 28.576 24.8379 28.272Z" fill="#5FF4FF"/>
<path d="M36.4606 18.05C37.6766 16.8087 38.7406 15.96 39.6526 15.504C40.5899 15.0227 41.4639 14.782 42.2746 14.782C43.1106 14.782 43.7946 15.0733 44.3266 15.656C44.8839 16.2133 45.1626 16.948 45.1626 17.86C45.1626 20.216 44.1746 22.6987 42.1986 25.308C40.2226 27.892 38.0946 29.184 35.8146 29.184C35.1306 29.184 34.4846 29.0573 33.8766 28.804L34.7886 27.132C35.1939 27.2333 35.5106 27.284 35.7386 27.284C37.2839 27.284 38.6899 26.4227 39.9566 24.7C41.2232 22.9773 41.8566 21.28 41.8566 19.608C41.8566 19.076 41.6792 18.6453 41.3246 18.316C40.9952 17.9613 40.5646 17.784 40.0326 17.784C38.8672 17.784 37.4992 18.7213 35.9286 20.596C34.3832 22.4707 33.0279 24.9153 31.8626 27.93L29.5446 26.98C30.3046 23.104 31.8246 18.3793 34.1046 12.806C36.3846 7.23267 38.2846 3.29333 39.8046 0.987999L41.7426 1.672C40.0706 4.788 38.2846 8.65133 36.3846 13.262C34.5099 17.8727 33.4079 21.0013 33.0786 22.648C34.1172 20.824 35.2446 19.2913 36.4606 18.05ZM56.7778 15.048C57.4111 15.048 57.9305 15.2633 58.3358 15.694C58.7411 16.1247 58.9438 16.682 58.9438 17.366C58.9438 18.734 58.1585 20.178 56.5878 21.698L55.6758 20.976C56.0305 20.1907 56.2078 19.6207 56.2078 19.266C56.2078 18.582 55.8278 18.24 55.0678 18.24C54.3078 18.24 53.5858 18.7213 52.9018 19.684C52.2178 20.6467 51.4071 22.1413 50.4698 24.168C49.5578 26.1693 48.8611 27.588 48.3798 28.424L46.2138 27.474C47.6071 24.3073 48.4051 22.4453 48.6078 21.888C49.2918 19.912 49.6338 17.404 49.6338 14.364L51.7618 13.794C51.6858 15.4407 51.5718 16.72 51.4198 17.632C51.2678 18.5187 50.9005 19.9753 50.3178 22.002C52.8765 17.366 55.0298 15.048 56.7778 15.048ZM75.9476 24.662L76.8216 25.308C76.467 26.068 75.8083 26.79 74.8456 27.474C73.9083 28.158 73.047 28.5 72.2616 28.5C70.767 28.5 70.0196 27.7147 70.0196 26.144C70.0196 25.4093 70.2096 24.5353 70.5896 23.522L69.1836 24.966C67.8156 26.3593 66.625 27.2967 65.6116 27.778C64.6236 28.2593 63.6483 28.5 62.6856 28.5C61.723 28.5 60.9883 28.234 60.4816 27.702C60.0003 27.1447 59.7596 26.3847 59.7596 25.422C59.7596 23.6487 60.4436 21.9007 61.8116 20.178C63.1796 18.43 64.9276 17.0113 67.0556 15.922C69.1836 14.8327 71.3116 14.2753 73.4396 14.25L73.5156 15.504L71.9196 15.846C69.6143 16.3527 67.575 17.366 65.8016 18.886C64.0536 20.406 63.1796 21.926 63.1796 23.446C63.1796 24.9407 63.7876 25.688 65.0036 25.688C66.1436 25.688 67.5496 24.89 69.2216 23.294C70.8936 21.698 72.287 19.8233 73.4016 17.67L74.9976 18.62C73.427 21.7867 72.6416 23.8007 72.6416 24.662C72.6416 25.0167 72.7556 25.3207 72.9836 25.574C73.237 25.802 73.4776 25.916 73.7056 25.916C73.959 25.916 74.1236 25.9033 74.1996 25.878C74.2756 25.8527 74.3516 25.8273 74.4276 25.802C74.5036 25.7513 74.5923 25.688 74.6936 25.612C74.8203 25.536 74.9216 25.46 74.9976 25.384C75.099 25.308 75.251 25.194 75.4536 25.042C75.6563 24.89 75.821 24.7633 75.9476 24.662ZM88.0981 15.048C88.7315 15.048 89.2508 15.2633 89.6561 15.694C90.0615 16.1247 90.2641 16.682 90.2641 17.366C90.2641 18.734 89.4788 20.178 87.9081 21.698L86.9961 20.976C87.3508 20.1907 87.5281 19.6207 87.5281 19.266C87.5281 18.582 87.1481 18.24 86.3881 18.24C85.6281 18.24 84.9061 18.7213 84.2221 19.684C83.5381 20.6467 82.7275 22.1413 81.7901 24.168C80.8781 26.1693 80.1815 27.588 79.7001 28.424L77.5341 27.474C78.9275 24.3073 79.7255 22.4453 79.9281 21.888C80.6121 19.912 80.9541 17.404 80.9541 14.364L83.0821 13.794C83.0061 15.4407 82.8921 16.72 82.7401 17.632C82.5881 18.5187 82.2208 19.9753 81.6381 22.002C84.1968 17.366 86.3501 15.048 88.0981 15.048ZM105.508 26.106L105.622 27.094C105.52 27.17 104.342 27.626 102.088 28.462C101.784 30.134 101.391 31.7807 100.91 33.402C100.454 35.0487 99.9851 36.29 99.5038 37.126C99.0478 37.9873 98.5031 38.836 97.8698 39.672C96.6031 41.344 94.8931 42.18 92.7398 42.18C91.6758 42.18 90.8271 41.8507 90.1938 41.192C89.5604 40.5333 89.2438 39.634 89.2438 38.494C89.2438 34.1113 92.9171 30.59 100.264 27.93L102.316 20.71C100.137 23.978 98.1738 25.992 96.4258 26.752C95.5644 27.1573 94.6524 27.36 93.6898 27.36C92.7524 27.36 91.9924 27.056 91.4098 26.448C90.8524 25.84 90.5738 24.9533 90.5738 23.788C90.5738 22.6227 90.9664 21.0013 91.7518 18.924C92.5624 16.8213 93.4618 15.0607 94.4498 13.642L96.3118 14.44C96.2358 14.516 95.8811 15.1873 95.2478 16.454C94.1331 18.7593 93.5758 20.4693 93.5758 21.584C93.5758 22.6987 93.7911 23.446 94.2218 23.826C94.6524 24.206 95.2858 24.396 96.1218 24.396C96.9578 24.396 97.8951 23.902 98.9338 22.914C99.9978 21.9007 101.632 19.912 103.836 16.948L105.204 17.746C105.001 18.582 104.545 20.102 103.836 22.306C103.152 24.4847 102.683 26.1567 102.43 27.322L105.508 26.106ZM100.036 29.07C98.4398 29.8047 97.0338 30.6407 95.8178 31.578C93.5378 33.3007 92.3978 34.9727 92.3978 36.594C92.3978 37.202 92.5751 37.696 92.9298 38.076C93.2844 38.456 93.7278 38.646 94.2598 38.646C96.7931 38.646 98.7184 35.454 100.036 29.07Z" fill="#FCFCFC"/>
</svg>
